<svg width="208" height="208" viewBox="0 0 208 208" fill="none" xmlns="http://www.w3.org/2000/svg">
    <g clip-path="url(#clip0_6_323)">
        <rect width="208" height="208" fill="white"/>
        <path d="M104.363 22.6668L198.2 46.0445C198.728 46.1759 198.983 46.4229 199.125 46.6514C199.289 46.914 199.375 47.2803 199.326 47.6827C199.277 48.085 199.104 48.4195 198.882 48.6348C198.689 48.8222 198.381 49 197.837 49H10.1627C9.61895 49 9.31099 48.8222 9.11789 48.6348C8.89598 48.4195 8.72325 48.085 8.67389 47.6827C8.62452 47.2803 8.71127 46.914 8.87454 46.6514C9.01662 46.4229 9.27246 46.1759 9.80011 46.0445L103.637 22.6668C103.875 22.6074 104.125 22.6074 104.363 22.6668Z"
              stroke="black" stroke-width="5"/>
        <path d="M19.432 95V71.64H23.208L25.64 79.192C25.8747 79.8747 26.088 80.5573 26.28 81.24C26.472 81.9013 26.6107 82.4133 26.696 82.776C26.8027 82.4133 26.9413 81.9013 27.112 81.24C27.2827 80.5573 27.4747 79.864 27.688 79.16L29.992 71.64H33.768V95H30.952V86.52C30.952 85.5813 30.984 84.5147 31.048 83.32C31.112 82.1253 31.1973 80.9093 31.304 79.672C31.4107 78.4133 31.5173 77.2187 31.624 76.088C31.752 74.936 31.8587 73.9333 31.944 73.08L28.168 84.76H25.128L21.32 73.08C21.4267 73.912 21.5333 74.8827 21.64 75.992C21.7467 77.08 21.8427 78.2427 21.928 79.48C22.0133 80.696 22.088 81.912 22.152 83.128C22.216 84.344 22.248 85.4747 22.248 86.52V95H19.432ZM45.7875 95.32C43.6115 95.32 41.9475 94.7227 40.7955 93.528C39.6435 92.312 39.0675 90.6693 39.0675 88.6V71.64H41.9475V88.6C41.9475 89.88 42.2568 90.8933 42.8755 91.64C43.5155 92.3867 44.4862 92.76 45.7875 92.76C47.0675 92.76 48.0275 92.3867 48.6675 91.64C49.3075 90.8933 49.6275 89.88 49.6275 88.6V71.64H52.5075V88.6C52.5075 90.6907 51.9315 92.3333 50.7795 93.528C49.6488 94.7227 47.9848 95.32 45.7875 95.32ZM65.103 95.32C63.567 95.32 62.2443 95.064 61.135 94.552C60.047 94.04 59.2043 93.304 58.607 92.344C58.0097 91.384 57.7003 90.2427 57.679 88.92H60.559C60.559 90.0933 60.9537 91.0213 61.743 91.704C62.5537 92.3867 63.6737 92.728 65.103 92.728C66.447 92.728 67.4923 92.3973 68.239 91.736C69.007 91.0747 69.391 90.1573 69.391 88.984C69.391 88.0453 69.135 87.224 68.623 86.52C68.1323 85.816 67.4177 85.3253 66.479 85.048L63.311 84.056C61.711 83.5653 60.4737 82.744 59.599 81.592C58.7457 80.44 58.319 79.0853 58.319 77.528C58.319 76.2693 58.5963 75.1813 59.151 74.264C59.727 73.3253 60.527 72.6 61.551 72.088C62.575 71.5547 63.7803 71.288 65.167 71.288C67.215 71.288 68.8577 71.864 70.095 73.016C71.3323 74.1467 71.9617 75.6613 71.983 77.56H69.103C69.103 76.408 68.751 75.512 68.047 74.872C67.3643 74.2107 66.3937 73.88 65.135 73.88C63.8977 73.88 62.927 74.1787 62.223 74.776C61.5403 75.3733 61.199 76.2053 61.199 77.272C61.199 78.232 61.455 79.064 61.967 79.768C62.479 80.472 63.215 80.9733 64.175 81.272L67.375 82.296C68.9323 82.7867 70.1377 83.6187 70.991 84.792C71.8443 85.9653 72.271 87.3413 72.271 88.92C72.271 90.2 71.9723 91.32 71.375 92.28C70.7777 93.24 69.935 93.9867 68.847 94.52C67.7803 95.0533 66.5323 95.32 65.103 95.32ZM77.7625 95V71.64H91.2025V74.264H80.6105V81.496H90.0825V84.088H80.6105V92.376H91.2025V95H77.7625ZM103.35 95.32C101.174 95.32 99.51 94.7227 98.358 93.528C97.206 92.312 96.63 90.6693 96.63 88.6V71.64H99.51V88.6C99.51 89.88 99.8193 90.8933 100.438 91.64C101.078 92.3867 102.049 92.76 103.35 92.76C104.63 92.76 105.59 92.3867 106.23 91.64C106.87 90.8933 107.19 89.88 107.19 88.6V71.64H110.07V88.6C110.07 90.6907 109.494 92.3333 108.342 93.528C107.211 94.7227 105.547 95.32 103.35 95.32ZM115.37 95V71.64H119.146L121.578 79.192C121.812 79.8747 122.026 80.5573 122.218 81.24C122.41 81.9013 122.548 82.4133 122.634 82.776C122.74 82.4133 122.879 81.9013 123.05 81.24C123.22 80.5573 123.412 79.864 123.626 79.16L125.93 71.64H129.706V95H126.89V86.52C126.89 85.5813 126.922 84.5147 126.986 83.32C127.05 82.1253 127.135 80.9093 127.242 79.672C127.348 78.4133 127.455 77.2187 127.562 76.088C127.69 74.936 127.796 73.9333 127.882 73.08L124.106 84.76H121.066L117.258 73.08C117.364 73.912 117.471 74.8827 117.578 75.992C117.684 77.08 117.78 78.2427 117.866 79.48C117.951 80.696 118.026 81.912 118.09 83.128C118.154 84.344 118.186 85.4747 118.186 86.52V95H115.37ZM134.045 98.2V95.8H149.405V98.2H134.045ZM26.6 137.32C25.192 137.32 23.976 137.053 22.952 136.52C21.9493 135.987 21.1707 135.219 20.616 134.216C20.0827 133.192 19.816 131.987 19.816 130.6V120.04C19.816 118.632 20.0827 117.427 20.616 116.424C21.1707 115.421 21.9493 114.653 22.952 114.12C23.976 113.587 25.192 113.32 26.6 113.32C28.008 113.32 29.2133 113.587 30.216 114.12C31.24 114.653 32.0187 115.421 32.552 116.424C33.1067 117.427 33.384 118.621 33.384 120.008V130.6C33.384 131.987 33.1067 133.192 32.552 134.216C32.0187 135.219 31.24 135.987 30.216 136.52C29.2133 137.053 28.008 137.32 26.6 137.32ZM26.6 134.728C27.8587 134.728 28.8187 134.376 29.48 133.672C30.1627 132.947 30.504 131.923 30.504 130.6V120.04C30.504 118.717 30.1627 117.704 29.48 117C28.8187 116.275 27.8587 115.912 26.6 115.912C25.3627 115.912 24.4027 116.275 23.72 117C23.0373 117.704 22.696 118.717 22.696 120.04V130.6C22.696 131.923 23.0373 132.947 23.72 133.672C24.4027 134.376 25.3627 134.728 26.6 134.728ZM39.2275 137V113.608H52.9875V116.232H42.0435V124.008H52.1555V126.632H42.1075V137H39.2275ZM57.295 140.2V137.8H72.655V140.2H57.295ZM26.568 179.32C24.5413 179.32 22.92 178.723 21.704 177.528C20.488 176.312 19.88 174.669 19.88 172.6V161.4H22.76V172.6C22.76 173.923 23.1013 174.957 23.784 175.704C24.4667 176.429 25.3947 176.792 26.568 176.792C27.7627 176.792 28.7013 176.429 29.384 175.704C30.088 174.957 30.44 173.923 30.44 172.6V161.4H33.32V172.6C33.32 174.669 32.7013 176.312 31.464 177.528C30.2267 178.723 28.5947 179.32 26.568 179.32ZM39.1315 179V161.4H42.0115V164.76H42.6195L42.0115 165.432C42.0115 164.045 42.4275 162.979 43.2595 162.232C44.0915 161.464 45.2435 161.08 46.7155 161.08C48.4862 161.08 49.8942 161.624 50.9395 162.712C51.9848 163.8 52.5075 165.283 52.5075 167.16V179H49.6275V167.48C49.6275 166.221 49.2862 165.261 48.6035 164.6C47.9422 163.917 47.0355 163.576 45.8835 163.576C44.6888 163.576 43.7395 163.939 43.0355 164.664C42.3528 165.389 42.0115 166.435 42.0115 167.8V179H39.1315ZM63.951 179.32C62.2017 179.32 60.783 178.733 59.695 177.56C58.6283 176.387 58.095 174.797 58.095 172.792V167.64C58.095 165.613 58.6283 164.013 59.695 162.84C60.7617 161.667 62.1803 161.08 63.951 161.08C65.4017 161.08 66.5643 161.475 67.439 162.264C68.3137 163.053 68.751 164.109 68.751 165.432L68.175 164.76H68.815L68.751 160.76V155.64H71.631V179H68.751V175.64H68.175L68.751 174.968C68.751 176.312 68.3137 177.379 67.439 178.168C66.5643 178.936 65.4017 179.32 63.951 179.32ZM64.911 176.824C66.1057 176.824 67.0443 176.451 67.727 175.704C68.4097 174.957 68.751 173.923 68.751 172.6V167.8C68.751 166.477 68.4097 165.443 67.727 164.696C67.0443 163.949 66.1057 163.576 64.911 163.576C63.695 163.576 62.735 163.939 62.031 164.664C61.327 165.389 60.975 166.435 60.975 167.8V172.6C60.975 173.965 61.327 175.011 62.031 175.736C62.735 176.461 63.695 176.824 64.911 176.824ZM84.1625 179.32C82.7758 179.32 81.5598 179.043 80.5145 178.488C79.4905 177.933 78.6905 177.155 78.1145 176.152C77.5598 175.128 77.2825 173.944 77.2825 172.6V167.8C77.2825 166.435 77.5598 165.251 78.1145 164.248C78.6905 163.245 79.4905 162.467 80.5145 161.912C81.5598 161.357 82.7758 161.08 84.1625 161.08C85.5492 161.08 86.7545 161.357 87.7785 161.912C88.8238 162.467 89.6238 163.245 90.1785 164.248C90.7545 165.251 91.0425 166.435 91.0425 167.8V170.904H80.0985V172.6C80.0985 173.987 80.4505 175.053 81.1545 175.8C81.8585 176.525 82.8612 176.888 84.1625 176.888C85.2718 176.888 86.1678 176.696 86.8505 176.312C87.5332 175.907 87.9492 175.309 88.0985 174.52H90.9785C90.7865 175.992 90.0612 177.165 88.8025 178.04C87.5652 178.893 86.0185 179.32 84.1625 179.32ZM88.2265 168.984V167.8C88.2265 166.413 87.8745 165.347 87.1705 164.6C86.4878 163.853 85.4852 163.48 84.1625 163.48C82.8612 163.48 81.8585 163.853 81.1545 164.6C80.4505 165.347 80.0985 166.413 80.0985 167.8V168.728H88.4505L88.2265 168.984ZM100.79 179V165.784H95.67V163.16H100.79V160.12C100.79 158.733 101.227 157.645 102.102 156.856C102.977 156.045 104.182 155.64 105.718 155.64H110.87V158.264H105.718C105.057 158.264 104.545 158.424 104.182 158.744C103.841 159.043 103.67 159.501 103.67 160.12V163.16H110.87V165.784H103.67V179H100.79ZM115.658 179V176.376H121.898V164.024H116.458V161.4H124.778V176.376H130.698V179H115.658ZM123.018 158.232C122.314 158.232 121.759 158.051 121.354 157.688C120.948 157.325 120.746 156.835 120.746 156.216C120.746 155.576 120.948 155.075 121.354 154.712C121.759 154.328 122.314 154.136 123.018 154.136C123.722 154.136 124.276 154.328 124.682 154.712C125.087 155.075 125.29 155.576 125.29 156.216C125.29 156.835 125.087 157.325 124.682 157.688C124.276 158.051 123.722 158.232 123.018 158.232ZM135.069 179V161.4H137.949V164.76H138.557L137.949 165.432C137.949 164.045 138.365 162.979 139.197 162.232C140.029 161.464 141.181 161.08 142.653 161.08C144.424 161.08 145.832 161.624 146.877 162.712C147.922 163.8 148.445 165.283 148.445 167.16V179H145.565V167.48C145.565 166.221 145.224 165.261 144.541 164.6C143.88 163.917 142.973 163.576 141.821 163.576C140.626 163.576 139.677 163.939 138.973 164.664C138.29 165.389 137.949 166.435 137.949 167.8V179H135.069ZM160.913 179.32C159.526 179.32 158.31 179.043 157.265 178.488C156.241 177.933 155.441 177.155 154.865 176.152C154.31 175.128 154.033 173.944 154.033 172.6V167.8C154.033 166.435 154.31 165.251 154.865 164.248C155.441 163.245 156.241 162.467 157.265 161.912C158.31 161.357 159.526 161.08 160.913 161.08C162.299 161.08 163.505 161.357 164.529 161.912C165.574 162.467 166.374 163.245 166.929 164.248C167.505 165.251 167.793 166.435 167.793 167.8V170.904H156.849V172.6C156.849 173.987 157.201 175.053 157.905 175.8C158.609 176.525 159.611 176.888 160.913 176.888C162.022 176.888 162.918 176.696 163.601 176.312C164.283 175.907 164.699 175.309 164.849 174.52H167.729C167.537 175.992 166.811 177.165 165.553 178.04C164.315 178.893 162.769 179.32 160.913 179.32ZM164.977 168.984V167.8C164.977 166.413 164.625 165.347 163.921 164.6C163.238 163.853 162.235 163.48 160.913 163.48C159.611 163.48 158.609 163.853 157.905 164.6C157.201 165.347 156.849 166.413 156.849 167.8V168.728H165.201L164.977 168.984ZM179.076 179.32C177.327 179.32 175.908 178.733 174.82 177.56C173.753 176.387 173.22 174.797 173.22 172.792V167.64C173.22 165.613 173.753 164.013 174.82 162.84C175.887 161.667 177.305 161.08 179.076 161.08C180.527 161.08 181.689 161.475 182.564 162.264C183.439 163.053 183.876 164.109 183.876 165.432L183.3 164.76H183.94L183.876 160.76V155.64H186.756V179H183.876V175.64H183.3L183.876 174.968C183.876 176.312 183.439 177.379 182.564 178.168C181.689 178.936 180.527 179.32 179.076 179.32ZM180.036 176.824C181.231 176.824 182.169 176.451 182.852 175.704C183.535 174.957 183.876 173.923 183.876 172.6V167.8C183.876 166.477 183.535 165.443 182.852 164.696C182.169 163.949 181.231 163.576 180.036 163.576C178.82 163.576 177.86 163.939 177.156 164.664C176.452 165.389 176.1 166.435 176.1 167.8V172.6C176.1 173.965 176.452 175.011 177.156 175.736C177.86 176.461 178.82 176.824 180.036 176.824Z"
              fill="black"/>
    </g>
    <defs>
        <clipPath id="clip0_6_323">
            <rect width="208" height="208" fill="white"/>
        </clipPath>
    </defs>
</svg>
