<svg width="208" height="51" viewBox="0 0 208 51" fill="none" xmlns="http://www.w3.org/2000/svg">
    <g clip-path="url(#clip0_6_331)">
        <rect width="208" height="51" fill="white"/>
        <path d="M104.786 9.96866L198.623 33.3464C202.343 34.2733 201.671 39.75 197.837 39.75H10.1627C6.32855 39.75 5.65662 34.2733 9.37706 33.3464L103.214 9.96866C103.73 9.84013 104.27 9.84013 104.786 9.96866Z"
              stroke="black" stroke-width="1.5"/>
        <mask id="path-2-outside-1_6_331" maskUnits="userSpaceOnUse" x="18" y="7" width="170" height="28" fill="black">
            <rect fill="white" x="18" y="7" width="170" height="28"/>
            <path d="M26.568 33.32C24.5413 33.32 22.92 32.7227 21.704 31.528C20.488 30.312 19.88 28.6693 19.88 26.6V15.4H22.76V26.6C22.76 27.9227 23.1013 28.9573 23.784 29.704C24.4667 30.4293 25.3947 30.792 26.568 30.792C27.7627 30.792 28.7013 30.4293 29.384 29.704C30.088 28.9573 30.44 27.9227 30.44 26.6V15.4H33.32V26.6C33.32 28.6693 32.7013 30.312 31.464 31.528C30.2267 32.7227 28.5947 33.32 26.568 33.32ZM39.1315 33V15.4H42.0115V18.76H42.6195L42.0115 19.432C42.0115 18.0453 42.4275 16.9787 43.2595 16.232C44.0915 15.464 45.2435 15.08 46.7155 15.08C48.4862 15.08 49.8942 15.624 50.9395 16.712C51.9848 17.8 52.5075 19.2827 52.5075 21.16V33H49.6275V21.48C49.6275 20.2213 49.2862 19.2613 48.6035 18.6C47.9422 17.9173 47.0355 17.576 45.8835 17.576C44.6888 17.576 43.7395 17.9387 43.0355 18.664C42.3528 19.3893 42.0115 20.4347 42.0115 21.8V33H39.1315ZM63.951 33.32C62.2017 33.32 60.783 32.7333 59.695 31.56C58.6283 30.3867 58.095 28.7973 58.095 26.792V21.64C58.095 19.6133 58.6283 18.0133 59.695 16.84C60.7617 15.6667 62.1803 15.08 63.951 15.08C65.4017 15.08 66.5643 15.4747 67.439 16.264C68.3137 17.0533 68.751 18.1093 68.751 19.432L68.175 18.76H68.815L68.751 14.76V9.64H71.631V33H68.751V29.64H68.175L68.751 28.968C68.751 30.312 68.3137 31.3787 67.439 32.168C66.5643 32.936 65.4017 33.32 63.951 33.32ZM64.911 30.824C66.1057 30.824 67.0443 30.4507 67.727 29.704C68.4097 28.9573 68.751 27.9227 68.751 26.6V21.8C68.751 20.4773 68.4097 19.4427 67.727 18.696C67.0443 17.9493 66.1057 17.576 64.911 17.576C63.695 17.576 62.735 17.9387 62.031 18.664C61.327 19.3893 60.975 20.4347 60.975 21.8V26.6C60.975 27.9653 61.327 29.0107 62.031 29.736C62.735 30.4613 63.695 30.824 64.911 30.824ZM84.1625 33.32C82.7758 33.32 81.5598 33.0427 80.5145 32.488C79.4905 31.9333 78.6905 31.1547 78.1145 30.152C77.5598 29.128 77.2825 27.944 77.2825 26.6V21.8C77.2825 20.4347 77.5598 19.2507 78.1145 18.248C78.6905 17.2453 79.4905 16.4667 80.5145 15.912C81.5598 15.3573 82.7758 15.08 84.1625 15.08C85.5492 15.08 86.7545 15.3573 87.7785 15.912C88.8238 16.4667 89.6238 17.2453 90.1785 18.248C90.7545 19.2507 91.0425 20.4347 91.0425 21.8V24.904H80.0985V26.6C80.0985 27.9867 80.4505 29.0533 81.1545 29.8C81.8585 30.5253 82.8612 30.888 84.1625 30.888C85.2718 30.888 86.1678 30.696 86.8505 30.312C87.5332 29.9067 87.9492 29.3093 88.0985 28.52H90.9785C90.7865 29.992 90.0612 31.1653 88.8025 32.04C87.5652 32.8933 86.0185 33.32 84.1625 33.32ZM88.2265 22.984V21.8C88.2265 20.4133 87.8745 19.3467 87.1705 18.6C86.4878 17.8533 85.4852 17.48 84.1625 17.48C82.8612 17.48 81.8585 17.8533 81.1545 18.6C80.4505 19.3467 80.0985 20.4133 80.0985 21.8V22.728H88.4505L88.2265 22.984ZM100.79 33V19.784H95.67V17.16H100.79V14.12C100.79 12.7333 101.227 11.6453 102.102 10.856C102.977 10.0453 104.182 9.64 105.718 9.64H110.87V12.264H105.718C105.057 12.264 104.545 12.424 104.182 12.744C103.841 13.0427 103.67 13.5013 103.67 14.12V17.16H110.87V19.784H103.67V33H100.79ZM115.658 33V30.376H121.898V18.024H116.458V15.4H124.778V30.376H130.698V33H115.658ZM123.018 12.232C122.314 12.232 121.759 12.0507 121.354 11.688C120.948 11.3253 120.746 10.8347 120.746 10.216C120.746 9.576 120.948 9.07467 121.354 8.712C121.759 8.328 122.314 8.136 123.018 8.136C123.722 8.136 124.276 8.328 124.682 8.712C125.087 9.07467 125.29 9.576 125.29 10.216C125.29 10.8347 125.087 11.3253 124.682 11.688C124.276 12.0507 123.722 12.232 123.018 12.232ZM135.069 33V15.4H137.949V18.76H138.557L137.949 19.432C137.949 18.0453 138.365 16.9787 139.197 16.232C140.029 15.464 141.181 15.08 142.653 15.08C144.424 15.08 145.832 15.624 146.877 16.712C147.922 17.8 148.445 19.2827 148.445 21.16V33H145.565V21.48C145.565 20.2213 145.224 19.2613 144.541 18.6C143.88 17.9173 142.973 17.576 141.821 17.576C140.626 17.576 139.677 17.9387 138.973 18.664C138.29 19.3893 137.949 20.4347 137.949 21.8V33H135.069ZM160.913 33.32C159.526 33.32 158.31 33.0427 157.265 32.488C156.241 31.9333 155.441 31.1547 154.865 30.152C154.31 29.128 154.033 27.944 154.033 26.6V21.8C154.033 20.4347 154.31 19.2507 154.865 18.248C155.441 17.2453 156.241 16.4667 157.265 15.912C158.31 15.3573 159.526 15.08 160.913 15.08C162.299 15.08 163.505 15.3573 164.529 15.912C165.574 16.4667 166.374 17.2453 166.929 18.248C167.505 19.2507 167.793 20.4347 167.793 21.8V24.904H156.849V26.6C156.849 27.9867 157.201 29.0533 157.905 29.8C158.609 30.5253 159.611 30.888 160.913 30.888C162.022 30.888 162.918 30.696 163.601 30.312C164.283 29.9067 164.699 29.3093 164.849 28.52H167.729C167.537 29.992 166.811 31.1653 165.553 32.04C164.315 32.8933 162.769 33.32 160.913 33.32ZM164.977 22.984V21.8C164.977 20.4133 164.625 19.3467 163.921 18.6C163.238 17.8533 162.235 17.48 160.913 17.48C159.611 17.48 158.609 17.8533 157.905 18.6C157.201 19.3467 156.849 20.4133 156.849 21.8V22.728H165.201L164.977 22.984ZM179.076 33.32C177.327 33.32 175.908 32.7333 174.82 31.56C173.753 30.3867 173.22 28.7973 173.22 26.792V21.64C173.22 19.6133 173.753 18.0133 174.82 16.84C175.887 15.6667 177.305 15.08 179.076 15.08C180.527 15.08 181.689 15.4747 182.564 16.264C183.439 17.0533 183.876 18.1093 183.876 19.432L183.3 18.76H183.94L183.876 14.76V9.64H186.756V33H183.876V29.64H183.3L183.876 28.968C183.876 30.312 183.439 31.3787 182.564 32.168C181.689 32.936 180.527 33.32 179.076 33.32ZM180.036 30.824C181.231 30.824 182.169 30.4507 182.852 29.704C183.535 28.9573 183.876 27.9227 183.876 26.6V21.8C183.876 20.4773 183.535 19.4427 182.852 18.696C182.169 17.9493 181.231 17.576 180.036 17.576C178.82 17.576 177.86 17.9387 177.156 18.664C176.452 19.3893 176.1 20.4347 176.1 21.8V26.6C176.1 27.9653 176.452 29.0107 177.156 29.736C177.86 30.4613 178.82 30.824 180.036 30.824Z"/>
        </mask>
        <path d="M26.568 33.32C24.5413 33.32 22.92 32.7227 21.704 31.528C20.488 30.312 19.88 28.6693 19.88 26.6V15.4H22.76V26.6C22.76 27.9227 23.1013 28.9573 23.784 29.704C24.4667 30.4293 25.3947 30.792 26.568 30.792C27.7627 30.792 28.7013 30.4293 29.384 29.704C30.088 28.9573 30.44 27.9227 30.44 26.6V15.4H33.32V26.6C33.32 28.6693 32.7013 30.312 31.464 31.528C30.2267 32.7227 28.5947 33.32 26.568 33.32ZM39.1315 33V15.4H42.0115V18.76H42.6195L42.0115 19.432C42.0115 18.0453 42.4275 16.9787 43.2595 16.232C44.0915 15.464 45.2435 15.08 46.7155 15.08C48.4862 15.08 49.8942 15.624 50.9395 16.712C51.9848 17.8 52.5075 19.2827 52.5075 21.16V33H49.6275V21.48C49.6275 20.2213 49.2862 19.2613 48.6035 18.6C47.9422 17.9173 47.0355 17.576 45.8835 17.576C44.6888 17.576 43.7395 17.9387 43.0355 18.664C42.3528 19.3893 42.0115 20.4347 42.0115 21.8V33H39.1315ZM63.951 33.32C62.2017 33.32 60.783 32.7333 59.695 31.56C58.6283 30.3867 58.095 28.7973 58.095 26.792V21.64C58.095 19.6133 58.6283 18.0133 59.695 16.84C60.7617 15.6667 62.1803 15.08 63.951 15.08C65.4017 15.08 66.5643 15.4747 67.439 16.264C68.3137 17.0533 68.751 18.1093 68.751 19.432L68.175 18.76H68.815L68.751 14.76V9.64H71.631V33H68.751V29.64H68.175L68.751 28.968C68.751 30.312 68.3137 31.3787 67.439 32.168C66.5643 32.936 65.4017 33.32 63.951 33.32ZM64.911 30.824C66.1057 30.824 67.0443 30.4507 67.727 29.704C68.4097 28.9573 68.751 27.9227 68.751 26.6V21.8C68.751 20.4773 68.4097 19.4427 67.727 18.696C67.0443 17.9493 66.1057 17.576 64.911 17.576C63.695 17.576 62.735 17.9387 62.031 18.664C61.327 19.3893 60.975 20.4347 60.975 21.8V26.6C60.975 27.9653 61.327 29.0107 62.031 29.736C62.735 30.4613 63.695 30.824 64.911 30.824ZM84.1625 33.32C82.7758 33.32 81.5598 33.0427 80.5145 32.488C79.4905 31.9333 78.6905 31.1547 78.1145 30.152C77.5598 29.128 77.2825 27.944 77.2825 26.6V21.8C77.2825 20.4347 77.5598 19.2507 78.1145 18.248C78.6905 17.2453 79.4905 16.4667 80.5145 15.912C81.5598 15.3573 82.7758 15.08 84.1625 15.08C85.5492 15.08 86.7545 15.3573 87.7785 15.912C88.8238 16.4667 89.6238 17.2453 90.1785 18.248C90.7545 19.2507 91.0425 20.4347 91.0425 21.8V24.904H80.0985V26.6C80.0985 27.9867 80.4505 29.0533 81.1545 29.8C81.8585 30.5253 82.8612 30.888 84.1625 30.888C85.2718 30.888 86.1678 30.696 86.8505 30.312C87.5332 29.9067 87.9492 29.3093 88.0985 28.52H90.9785C90.7865 29.992 90.0612 31.1653 88.8025 32.04C87.5652 32.8933 86.0185 33.32 84.1625 33.32ZM88.2265 22.984V21.8C88.2265 20.4133 87.8745 19.3467 87.1705 18.6C86.4878 17.8533 85.4852 17.48 84.1625 17.48C82.8612 17.48 81.8585 17.8533 81.1545 18.6C80.4505 19.3467 80.0985 20.4133 80.0985 21.8V22.728H88.4505L88.2265 22.984ZM100.79 33V19.784H95.67V17.16H100.79V14.12C100.79 12.7333 101.227 11.6453 102.102 10.856C102.977 10.0453 104.182 9.64 105.718 9.64H110.87V12.264H105.718C105.057 12.264 104.545 12.424 104.182 12.744C103.841 13.0427 103.67 13.5013 103.67 14.12V17.16H110.87V19.784H103.67V33H100.79ZM115.658 33V30.376H121.898V18.024H116.458V15.4H124.778V30.376H130.698V33H115.658ZM123.018 12.232C122.314 12.232 121.759 12.0507 121.354 11.688C120.948 11.3253 120.746 10.8347 120.746 10.216C120.746 9.576 120.948 9.07467 121.354 8.712C121.759 8.328 122.314 8.136 123.018 8.136C123.722 8.136 124.276 8.328 124.682 8.712C125.087 9.07467 125.29 9.576 125.29 10.216C125.29 10.8347 125.087 11.3253 124.682 11.688C124.276 12.0507 123.722 12.232 123.018 12.232ZM135.069 33V15.4H137.949V18.76H138.557L137.949 19.432C137.949 18.0453 138.365 16.9787 139.197 16.232C140.029 15.464 141.181 15.08 142.653 15.08C144.424 15.08 145.832 15.624 146.877 16.712C147.922 17.8 148.445 19.2827 148.445 21.16V33H145.565V21.48C145.565 20.2213 145.224 19.2613 144.541 18.6C143.88 17.9173 142.973 17.576 141.821 17.576C140.626 17.576 139.677 17.9387 138.973 18.664C138.29 19.3893 137.949 20.4347 137.949 21.8V33H135.069ZM160.913 33.32C159.526 33.32 158.31 33.0427 157.265 32.488C156.241 31.9333 155.441 31.1547 154.865 30.152C154.31 29.128 154.033 27.944 154.033 26.6V21.8C154.033 20.4347 154.31 19.2507 154.865 18.248C155.441 17.2453 156.241 16.4667 157.265 15.912C158.31 15.3573 159.526 15.08 160.913 15.08C162.299 15.08 163.505 15.3573 164.529 15.912C165.574 16.4667 166.374 17.2453 166.929 18.248C167.505 19.2507 167.793 20.4347 167.793 21.8V24.904H156.849V26.6C156.849 27.9867 157.201 29.0533 157.905 29.8C158.609 30.5253 159.611 30.888 160.913 30.888C162.022 30.888 162.918 30.696 163.601 30.312C164.283 29.9067 164.699 29.3093 164.849 28.52H167.729C167.537 29.992 166.811 31.1653 165.553 32.04C164.315 32.8933 162.769 33.32 160.913 33.32ZM164.977 22.984V21.8C164.977 20.4133 164.625 19.3467 163.921 18.6C163.238 17.8533 162.235 17.48 160.913 17.48C159.611 17.48 158.609 17.8533 157.905 18.6C157.201 19.3467 156.849 20.4133 156.849 21.8V22.728H165.201L164.977 22.984ZM179.076 33.32C177.327 33.32 175.908 32.7333 174.82 31.56C173.753 30.3867 173.22 28.7973 173.22 26.792V21.64C173.22 19.6133 173.753 18.0133 174.82 16.84C175.887 15.6667 177.305 15.08 179.076 15.08C180.527 15.08 181.689 15.4747 182.564 16.264C183.439 17.0533 183.876 18.1093 183.876 19.432L183.3 18.76H183.94L183.876 14.76V9.64H186.756V33H183.876V29.64H183.3L183.876 28.968C183.876 30.312 183.439 31.3787 182.564 32.168C181.689 32.936 180.527 33.32 179.076 33.32ZM180.036 30.824C181.231 30.824 182.169 30.4507 182.852 29.704C183.535 28.9573 183.876 27.9227 183.876 26.6V21.8C183.876 20.4773 183.535 19.4427 182.852 18.696C182.169 17.9493 181.231 17.576 180.036 17.576C178.82 17.576 177.86 17.9387 177.156 18.664C176.452 19.3893 176.1 20.4347 176.1 21.8V26.6C176.1 27.9653 176.452 29.0107 177.156 29.736C177.86 30.4613 178.82 30.824 180.036 30.824Z"
              fill="black"/>
        <path d="M21.704 31.528L20.9969 32.2351L21.0032 32.2413L21.704 31.528ZM19.88 15.4V14.4H18.88V15.4H19.88ZM22.76 15.4H23.76V14.4H22.76V15.4ZM23.784 29.704L23.046 30.3788L23.0508 30.3841L23.0558 30.3894L23.784 29.704ZM29.384 29.704L28.6564 29.018L28.6558 29.0186L29.384 29.704ZM30.44 15.4V14.4H29.44V15.4H30.44ZM33.32 15.4H34.32V14.4H33.32V15.4ZM31.464 31.528L32.1586 32.2474L32.1649 32.2412L31.464 31.528ZM26.568 32.32C24.7505 32.32 23.3991 31.7915 22.4048 30.8147L21.0032 32.2413C22.4409 33.6538 24.3322 34.32 26.568 34.32V32.32ZM22.4111 30.8209C21.4198 29.8296 20.88 28.4618 20.88 26.6H18.88C18.88 28.8769 19.5562 30.7944 20.9969 32.2351L22.4111 30.8209ZM20.88 26.6V15.4H18.88V26.6H20.88ZM19.88 16.4H22.76V14.4H19.88V16.4ZM21.76 15.4V26.6H23.76V15.4H21.76ZM21.76 26.6C21.76 28.0936 22.1483 29.3969 23.046 30.3788L24.522 29.0292C24.0544 28.5178 23.76 27.7517 23.76 26.6H21.76ZM23.0558 30.3894C23.9611 31.3513 25.1723 31.792 26.568 31.792V29.792C25.6171 29.792 24.9722 29.5074 24.5122 29.0186L23.0558 30.3894ZM26.568 31.792C27.979 31.792 29.2034 31.355 30.1122 30.3894L28.6558 29.0186C28.1993 29.5037 27.5464 29.792 26.568 29.792V31.792ZM30.1116 30.39C31.0367 29.4088 31.44 28.1014 31.44 26.6H29.44C29.44 27.744 29.1393 28.5058 28.6564 29.018L30.1116 30.39ZM31.44 26.6V15.4H29.44V26.6H31.44ZM30.44 16.4H33.32V14.4H30.44V16.4ZM32.32 15.4V26.6H34.32V15.4H32.32ZM32.32 26.6C32.32 28.4567 31.7728 29.8225 30.7631 30.8148L32.1649 32.2412C33.6299 30.8015 34.32 28.882 34.32 26.6H32.32ZM30.7694 30.8086C29.7513 31.7916 28.385 32.32 26.568 32.32V34.32C28.8043 34.32 30.702 33.6537 32.1586 32.2474L30.7694 30.8086ZM39.1315 33H38.1315V34H39.1315V33ZM39.1315 15.4V14.4H38.1315V15.4H39.1315ZM42.0115 15.4H43.0115V14.4H42.0115V15.4ZM42.0115 18.76H41.0115V19.76H42.0115V18.76ZM42.6195 18.76L43.361 19.4309L44.8728 17.76H42.6195V18.76ZM42.0115 19.432H41.0115V22.0278L42.753 20.1029L42.0115 19.432ZM43.2595 16.232L43.9275 16.9763L43.9378 16.9668L43.2595 16.232ZM50.9395 16.712L50.2184 17.4048L50.2184 17.4048L50.9395 16.712ZM52.5075 33V34H53.5075V33H52.5075ZM49.6275 33H48.6275V34H49.6275V33ZM48.6035 18.6L47.8853 19.2958L47.8963 19.3072L47.9077 19.3182L48.6035 18.6ZM43.0355 18.664L42.3179 17.9675L42.3126 17.973L42.3073 17.9786L43.0355 18.664ZM42.0115 33V34H43.0115V33H42.0115ZM40.1315 33V15.4H38.1315V33H40.1315ZM39.1315 16.4H42.0115V14.4H39.1315V16.4ZM41.0115 15.4V18.76H43.0115V15.4H41.0115ZM42.0115 19.76H42.6195V17.76H42.0115V19.76ZM41.878 18.0891L41.27 18.7611L42.753 20.1029L43.361 19.4309L41.878 18.0891ZM43.0115 19.432C43.0115 18.2557 43.3559 17.4891 43.9274 16.9762L42.5916 15.4878C41.4991 16.4682 41.0115 17.8349 41.0115 19.432H43.0115ZM43.9378 16.9668C44.535 16.4156 45.4172 16.08 46.7155 16.08V14.08C45.0698 14.08 43.648 14.5124 42.5812 15.4972L43.9378 16.9668ZM46.7155 16.08C48.2652 16.08 49.3944 16.5472 50.2184 17.4048L51.6606 16.0192C50.3939 14.7008 48.7071 14.08 46.7155 14.08V16.08ZM50.2184 17.4048C51.0436 18.2637 51.5075 19.4746 51.5075 21.16H53.5075C53.5075 19.0907 52.9261 17.3363 51.6606 16.0192L50.2184 17.4048ZM51.5075 21.16V33H53.5075V21.16H51.5075ZM52.5075 32H49.6275V34H52.5075V32ZM50.6275 33V21.48H48.6275V33H50.6275ZM50.6275 21.48C50.6275 20.042 50.2335 18.7867 49.2993 17.8818L47.9077 19.3182C48.3389 19.7359 48.6275 20.4007 48.6275 21.48H50.6275ZM49.3217 17.9042C48.4331 16.9869 47.2447 16.576 45.8835 16.576V18.576C46.8263 18.576 47.4512 18.8477 47.8853 19.2958L49.3217 17.9042ZM45.8835 16.576C44.4716 16.576 43.2443 17.0131 42.3179 17.9675L43.7531 19.3605C44.2347 18.8643 44.9061 18.576 45.8835 18.576V16.576ZM42.3073 17.9786C41.394 18.9491 41.0115 20.2756 41.0115 21.8H43.0115C43.0115 20.5937 43.3117 19.8296 43.7637 19.3494L42.3073 17.9786ZM41.0115 21.8V33H43.0115V21.8H41.0115ZM42.0115 32H39.1315V34H42.0115V32ZM59.695 31.56L58.955 32.2327L58.9617 32.2399L59.695 31.56ZM59.695 16.84L60.4349 17.5127L60.4349 17.5127L59.695 16.84ZM67.439 16.264L66.769 17.0064L66.769 17.0064L67.439 16.264ZM68.751 19.432L67.9917 20.0828L69.751 22.1353V19.432H68.751ZM68.175 18.76V17.76H66.0008L67.4157 19.4108L68.175 18.76ZM68.815 18.76V19.76H69.8311L69.8149 18.744L68.815 18.76ZM68.751 14.76H67.751V14.768L67.7511 14.776L68.751 14.76ZM68.751 9.64V8.64H67.751V9.64H68.751ZM71.631 9.64H72.631V8.64H71.631V9.64ZM71.631 33V34H72.631V33H71.631ZM68.751 33H67.751V34H68.751V33ZM68.751 29.64H69.751V28.64H68.751V29.64ZM68.175 29.64L67.4157 28.9892L66.0008 30.64H68.175V29.64ZM68.751 28.968H69.751V26.2647L67.9917 28.3172L68.751 28.968ZM67.439 32.168L68.0989 32.9195L68.109 32.9104L67.439 32.168ZM67.727 29.704L66.989 29.0292L67.727 29.704ZM62.031 18.664L62.7486 19.3605L62.7486 19.3605L62.031 18.664ZM62.031 29.736L61.3134 30.4325L61.3134 30.4325L62.031 29.736ZM63.951 32.32C62.4511 32.32 61.3082 31.829 60.4283 30.8801L58.9617 32.2399C60.2578 33.6376 61.9523 34.32 63.951 34.32V32.32ZM60.4349 30.8873C59.5765 29.943 59.095 28.6168 59.095 26.792H57.095C57.095 28.9778 57.6802 30.8303 58.9551 32.2327L60.4349 30.8873ZM59.095 26.792V21.64H57.095V26.792H59.095ZM59.095 21.64C59.095 19.7906 59.5782 18.4551 60.4349 17.5127L58.9551 16.1673C57.6785 17.5716 57.095 19.4361 57.095 21.64H59.095ZM60.4349 17.5127C61.2888 16.5734 62.4256 16.08 63.951 16.08V14.08C61.9351 14.08 60.2345 14.76 58.9551 16.1673L60.4349 17.5127ZM63.951 16.08C65.214 16.08 66.1182 16.419 66.769 17.0064L68.109 15.5216C67.0105 14.5303 65.5893 14.08 63.951 14.08V16.08ZM66.769 17.0064C67.4066 17.5817 67.751 18.3538 67.751 19.432H69.751C69.751 17.8649 69.2208 16.5249 68.109 15.5216L66.769 17.0064ZM69.5103 18.7812L68.9343 18.1092L67.4157 19.4108L67.9917 20.0828L69.5103 18.7812ZM68.175 19.76H68.815V17.76H68.175V19.76ZM69.8149 18.744L69.7509 14.744L67.7511 14.776L67.8151 18.776L69.8149 18.744ZM69.751 14.76V9.64H67.751V14.76H69.751ZM68.751 10.64H71.631V8.64H68.751V10.64ZM70.631 9.64V33H72.631V9.64H70.631ZM71.631 32H68.751V34H71.631V32ZM69.751 33V29.64H67.751V33H69.751ZM68.751 28.64H68.175V30.64H68.751V28.64ZM68.9343 30.2908L69.5103 29.6188L67.9917 28.3172L67.4157 28.9892L68.9343 30.2908ZM67.751 28.968C67.751 30.073 67.403 30.8535 66.769 31.4256L68.109 32.9104C69.2244 31.9038 69.751 30.551 69.751 28.968H67.751ZM66.7792 31.4166C66.1288 31.9877 65.2209 32.32 63.951 32.32V34.32C65.5825 34.32 66.9999 33.8843 68.0988 32.9194L66.7792 31.4166ZM64.911 31.824C66.331 31.824 67.5585 31.3703 68.465 30.3788L66.989 29.0292C66.5302 29.531 65.8803 29.824 64.911 29.824V31.824ZM68.465 30.3788C69.3627 29.3969 69.751 28.0936 69.751 26.6H67.751C67.751 27.7517 67.4566 28.5178 66.989 29.0292L68.465 30.3788ZM69.751 26.6V21.8H67.751V26.6H69.751ZM69.751 21.8C69.751 20.3064 69.3627 19.0031 68.465 18.0212L66.989 19.3708C67.4566 19.8822 67.751 20.6483 67.751 21.8H69.751ZM68.465 18.0212C67.5585 17.0297 66.331 16.576 64.911 16.576V18.576C65.8803 18.576 66.5302 18.869 66.989 19.3708L68.465 18.0212ZM64.911 16.576C63.4836 16.576 62.2432 17.0096 61.3134 17.9675L62.7486 19.3605C63.2268 18.8678 63.9064 18.576 64.911 18.576V16.576ZM61.3134 17.9675C60.3723 18.9372 59.975 20.268 59.975 21.8H61.975C61.975 20.6013 62.2817 19.8415 62.7486 19.3605L61.3134 17.9675ZM59.975 21.8V26.6H61.975V21.8H59.975ZM59.975 26.6C59.975 28.132 60.3723 29.4628 61.3134 30.4325L62.7486 29.0395C62.2817 28.5585 61.975 27.7987 61.975 26.6H59.975ZM61.3134 30.4325C62.2432 31.3904 63.4836 31.824 64.911 31.824V29.824C63.9064 29.824 63.2268 29.5322 62.7486 29.0395L61.3134 30.4325ZM80.5145 32.488L80.0382 33.3673L80.0458 33.3713L80.5145 32.488ZM78.1145 30.152L77.2352 30.6283L77.2412 30.6393L77.2474 30.6501L78.1145 30.152ZM78.1145 18.248L77.2474 17.7499L77.2434 17.7569L77.2395 17.7639L78.1145 18.248ZM80.5145 15.912L80.0458 15.0286L80.0382 15.0327L80.5145 15.912ZM87.7785 15.912L87.3022 16.7913L87.3098 16.7953L87.7785 15.912ZM90.1785 18.248L89.3035 18.7321L89.3074 18.7391L89.3114 18.7461L90.1785 18.248ZM91.0425 24.904V25.904H92.0425V24.904H91.0425ZM80.0985 24.904V23.904H79.0985V24.904H80.0985ZM81.1545 29.8L80.4269 30.486L80.4319 30.4913L80.4369 30.4965L81.1545 29.8ZM86.8505 30.312L87.3408 31.1836L87.351 31.1778L87.361 31.1719L86.8505 30.312ZM88.0985 28.52V27.52H87.27L87.1159 28.3341L88.0985 28.52ZM90.9785 28.52L91.9701 28.6493L92.1174 27.52H90.9785V28.52ZM88.8025 32.04L89.3702 32.8632L89.3732 32.8612L88.8025 32.04ZM88.2265 22.984H87.2265V25.6454L88.9791 23.6425L88.2265 22.984ZM87.1705 18.6L86.4325 19.2748L86.4376 19.2804L86.4429 19.286L87.1705 18.6ZM81.1545 18.6L81.8821 19.286L81.8821 19.286L81.1545 18.6ZM80.0985 22.728H79.0985V23.728H80.0985V22.728ZM88.4505 22.728L89.2031 23.3865L90.6543 21.728H88.4505V22.728ZM84.1625 32.32C82.9111 32.32 81.8612 32.0705 80.9832 31.6047L80.0458 33.3713C81.2584 34.0148 82.6405 34.32 84.1625 34.32V32.32ZM80.9908 31.6087C80.1287 31.1417 79.4645 30.4945 78.9816 29.6539L77.2474 30.6501C77.9165 31.8148 78.8523 32.7249 80.0382 33.3673L80.9908 31.6087ZM78.9938 29.6757C78.5298 28.8191 78.2825 27.8035 78.2825 26.6H76.2825C76.2825 28.0845 76.5899 29.4369 77.2352 30.6283L78.9938 29.6757ZM78.2825 26.6V21.8H76.2825V26.6H78.2825ZM78.2825 21.8C78.2825 20.5716 78.5312 19.5606 78.9895 18.7321L77.2395 17.7639C76.5885 18.9408 76.2825 20.2978 76.2825 21.8H78.2825ZM78.9816 18.7461C79.4645 17.9055 80.1287 17.2583 80.9908 16.7913L80.0382 15.0327C78.8523 15.6751 77.9165 16.5852 77.2474 17.7499L78.9816 18.7461ZM80.9832 16.7953C81.8612 16.3295 82.9111 16.08 84.1625 16.08V14.08C82.6405 14.08 81.2584 14.3852 80.0458 15.0286L80.9832 16.7953ZM84.1625 16.08C85.4145 16.08 86.45 16.3297 87.3022 16.7913L88.2548 15.0327C87.059 14.385 85.6838 14.08 84.1625 14.08V16.08ZM87.3098 16.7953C88.1898 17.2623 88.8459 17.9048 89.3035 18.7321L91.0535 17.7639C90.4018 16.5858 89.4579 15.6711 88.2472 15.0286L87.3098 16.7953ZM89.3114 18.7461C89.7858 19.5719 90.0425 20.5777 90.0425 21.8H92.0425C92.0425 20.2916 91.7232 18.9295 91.0456 17.7499L89.3114 18.7461ZM90.0425 21.8V24.904H92.0425V21.8H90.0425ZM91.0425 23.904H80.0985V25.904H91.0425V23.904ZM79.0985 24.904V26.6H81.0985V24.904H79.0985ZM79.0985 26.6C79.0985 28.1504 79.494 29.4966 80.4269 30.486L81.8821 29.114C81.407 28.6101 81.0985 27.8229 81.0985 26.6H79.0985ZM80.4369 30.4965C81.3794 31.4675 82.6724 31.888 84.1625 31.888V29.888C83.0499 29.888 82.3376 29.5832 81.8721 29.1035L80.4369 30.4965ZM84.1625 31.888C85.3761 31.888 86.4589 31.6796 87.3408 31.1836L86.3602 29.4404C85.8768 29.7124 85.1676 29.888 84.1625 29.888V31.888ZM87.361 31.1719C88.2938 30.618 88.8791 29.7734 89.0811 28.7059L87.1159 28.3341C87.0192 28.8453 86.7725 29.1953 86.34 29.4521L87.361 31.1719ZM88.0985 29.52H90.9785V27.52H88.0985V29.52ZM89.9869 28.3907C89.8327 29.5728 89.2675 30.4991 88.2318 31.2188L89.3732 32.8612C90.8549 31.8315 91.7403 30.4112 91.9701 28.6493L89.9869 28.3907ZM88.2348 31.2168C87.2 31.9304 85.8638 32.32 84.1625 32.32V34.32C86.1732 34.32 87.9303 33.8562 89.3702 32.8632L88.2348 31.2168ZM89.2265 22.984V21.8H87.2265V22.984H89.2265ZM89.2265 21.8C89.2265 20.2496 88.831 18.9034 87.8981 17.914L86.4429 19.286C86.918 19.7899 87.2265 20.5771 87.2265 21.8H89.2265ZM87.9085 17.9252C86.9826 16.9125 85.6749 16.48 84.1625 16.48V18.48C85.2955 18.48 85.993 18.7941 86.4325 19.2748L87.9085 17.9252ZM84.1625 16.48C82.6641 16.48 81.3676 16.9163 80.4269 17.914L81.8821 19.286C82.3494 18.7904 83.0582 18.48 84.1625 18.48V16.48ZM80.4269 17.914C79.494 18.9034 79.0985 20.2496 79.0985 21.8H81.0985C81.0985 20.5771 81.407 19.7899 81.8821 19.286L80.4269 17.914ZM79.0985 21.8V22.728H81.0985V21.8H79.0985ZM80.0985 23.728H88.4505V21.728H80.0985V23.728ZM87.6979 22.0695L87.4739 22.3255L88.9791 23.6425L89.2031 23.3865L87.6979 22.0695ZM100.79 33H99.79V34H100.79V33ZM100.79 19.784H101.79V18.784H100.79V19.784ZM95.67 19.784H94.67V20.784H95.67V19.784ZM95.67 17.16V16.16H94.67V17.16H95.67ZM100.79 17.16V18.16H101.79V17.16H100.79ZM102.102 10.856L102.772 11.5985L102.782 11.5894L102.102 10.856ZM110.87 9.64H111.87V8.64H110.87V9.64ZM110.87 12.264V13.264H111.87V12.264H110.87ZM104.182 12.744L104.841 13.4966L104.844 13.4938L104.182 12.744ZM103.67 17.16H102.67V18.16H103.67V17.16ZM110.87 17.16H111.87V16.16H110.87V17.16ZM110.87 19.784V20.784H111.87V19.784H110.87ZM103.67 19.784V18.784H102.67V19.784H103.67ZM103.67 33V34H104.67V33H103.67ZM101.79 33V19.784H99.79V33H101.79ZM100.79 18.784H95.67V20.784H100.79V18.784ZM96.67 19.784V17.16H94.67V19.784H96.67ZM95.67 18.16H100.79V16.16H95.67V18.16ZM101.79 17.16V14.12H99.79V17.16H101.79ZM101.79 14.12C101.79 12.9615 102.145 12.1642 102.772 11.5984L101.432 10.1136C100.31 11.1264 99.79 12.5052 99.79 14.12H101.79ZM102.782 11.5894C103.423 10.9951 104.359 10.64 105.718 10.64V8.64C104.005 8.64 102.53 9.09557 101.422 10.1226L102.782 11.5894ZM105.718 10.64H110.87V8.64H105.718V10.64ZM109.87 9.64V12.264H111.87V9.64H109.87ZM110.87 11.264H105.718V13.264H110.87V11.264ZM105.718 11.264C104.903 11.264 104.123 11.462 103.52 11.9942L104.844 13.4938C104.966 13.386 105.21 13.264 105.718 13.264V11.264ZM103.523 11.9914C102.894 12.542 102.67 13.3229 102.67 14.12H104.67C104.67 13.6798 104.787 13.5433 104.841 13.4966L103.523 11.9914ZM102.67 14.12V17.16H104.67V14.12H102.67ZM103.67 18.16H110.87V16.16H103.67V18.16ZM109.87 17.16V19.784H111.87V17.16H109.87ZM110.87 18.784H103.67V20.784H110.87V18.784ZM102.67 19.784V33H104.67V19.784H102.67ZM103.67 32H100.79V34H103.67V32ZM115.658 33H114.658V34H115.658V33ZM115.658 30.376V29.376H114.658V30.376H115.658ZM121.898 30.376V31.376H122.898V30.376H121.898ZM121.898 18.024H122.898V17.024H121.898V18.024ZM116.458 18.024H115.458V19.024H116.458V18.024ZM116.458 15.4V14.4H115.458V15.4H116.458ZM124.778 15.4H125.778V14.4H124.778V15.4ZM124.778 30.376H123.778V31.376H124.778V30.376ZM130.698 30.376H131.698V29.376H130.698V30.376ZM130.698 33V34H131.698V33H130.698ZM121.354 11.688L120.687 12.4332L120.687 12.4332L121.354 11.688ZM121.354 8.712L122.02 9.45724L122.031 9.44774L122.041 9.43795L121.354 8.712ZM124.682 8.712L123.994 9.43795L124.004 9.44774L124.015 9.45724L124.682 8.712ZM124.682 11.688L125.348 12.4332L125.348 12.4332L124.682 11.688ZM116.658 33V30.376H114.658V33H116.658ZM115.658 31.376H121.898V29.376H115.658V31.376ZM122.898 30.376V18.024H120.898V30.376H122.898ZM121.898 17.024H116.458V19.024H121.898V17.024ZM117.458 18.024V15.4H115.458V18.024H117.458ZM116.458 16.4H124.778V14.4H116.458V16.4ZM123.778 15.4V30.376H125.778V15.4H123.778ZM124.778 31.376H130.698V29.376H124.778V31.376ZM129.698 30.376V33H131.698V30.376H129.698ZM130.698 32H115.658V34H130.698V32ZM123.018 11.232C122.485 11.232 122.194 11.0978 122.02 10.9428L120.687 12.4332C121.324 13.0036 122.142 13.232 123.018 13.232V11.232ZM122.02 10.9428C121.857 10.7969 121.746 10.5935 121.746 10.216H119.746C119.746 11.0758 120.039 11.8538 120.687 12.4332L122.02 10.9428ZM121.746 10.216C121.746 9.80538 121.865 9.59631 122.02 9.45724L120.687 7.96676C120.031 8.55302 119.746 9.34662 119.746 10.216H121.746ZM122.041 9.43795C122.216 9.27264 122.5 9.136 123.018 9.136V7.136C122.127 7.136 121.302 7.38335 120.666 7.98604L122.041 9.43795ZM123.018 9.136C123.535 9.136 123.819 9.27264 123.994 9.43795L125.369 7.98604C124.733 7.38335 123.908 7.136 123.018 7.136V9.136ZM124.015 9.45724C124.17 9.59631 124.29 9.80538 124.29 10.216H126.29C126.29 9.34662 126.004 8.55302 125.348 7.96676L124.015 9.45724ZM124.29 10.216C124.29 10.5935 124.178 10.7969 124.015 10.9428L125.348 12.4332C125.996 11.8538 126.29 11.0758 126.29 10.216H124.29ZM124.015 10.9428C123.841 11.0978 123.55 11.232 123.018 11.232V13.232C123.893 13.232 124.711 13.0036 125.348 12.4332L124.015 10.9428ZM135.069 33H134.069V34H135.069V33ZM135.069 15.4V14.4H134.069V15.4H135.069ZM137.949 15.4H138.949V14.4H137.949V15.4ZM137.949 18.76H136.949V19.76H137.949V18.76ZM138.557 18.76L139.299 19.4309L140.81 17.76H138.557V18.76ZM137.949 19.432H136.949V22.0278L138.691 20.1029L137.949 19.432ZM139.197 16.232L139.865 16.9763L139.875 16.9668L139.197 16.232ZM146.877 16.712L146.156 17.4048L146.156 17.4048L146.877 16.712ZM148.445 33V34H149.445V33H148.445ZM145.565 33H144.565V34H145.565V33ZM144.541 18.6L143.823 19.2958L143.834 19.3072L143.845 19.3182L144.541 18.6ZM138.973 18.664L138.255 17.9675L138.25 17.973L138.245 17.9786L138.973 18.664ZM137.949 33V34H138.949V33H137.949ZM136.069 33V15.4H134.069V33H136.069ZM135.069 16.4H137.949V14.4H135.069V16.4ZM136.949 15.4V18.76H138.949V15.4H136.949ZM137.949 19.76H138.557V17.76H137.949V19.76ZM137.815 18.0891L137.207 18.7611L138.691 20.1029L139.299 19.4309L137.815 18.0891ZM138.949 19.432C138.949 18.2557 139.293 17.4891 139.865 16.9762L138.529 15.4878C137.437 16.4682 136.949 17.8349 136.949 19.432H138.949ZM139.875 16.9668C140.472 16.4156 141.355 16.08 142.653 16.08V14.08C141.007 14.08 139.586 14.5124 138.519 15.4972L139.875 16.9668ZM142.653 16.08C144.203 16.08 145.332 16.5472 146.156 17.4048L147.598 16.0192C146.331 14.7008 144.645 14.08 142.653 14.08V16.08ZM146.156 17.4048C146.981 18.2637 147.445 19.4746 147.445 21.16H149.445C149.445 19.0907 148.864 17.3363 147.598 16.0192L146.156 17.4048ZM147.445 21.16V33H149.445V21.16H147.445ZM148.445 32H145.565V34H148.445V32ZM146.565 33V21.48H144.565V33H146.565ZM146.565 21.48C146.565 20.042 146.171 18.7867 145.237 17.8818L143.845 19.3182C144.276 19.7359 144.565 20.4007 144.565 21.48H146.565ZM145.259 17.9042C144.371 16.9869 143.182 16.576 141.821 16.576V18.576C142.764 18.576 143.389 18.8477 143.823 19.2958L145.259 17.9042ZM141.821 16.576C140.409 16.576 139.182 17.0131 138.255 17.9675L139.691 19.3605C140.172 18.8643 140.844 18.576 141.821 18.576V16.576ZM138.245 17.9786C137.331 18.9491 136.949 20.2756 136.949 21.8H138.949C138.949 20.5937 139.249 19.8296 139.701 19.3494L138.245 17.9786ZM136.949 21.8V33H138.949V21.8H136.949ZM137.949 32H135.069V34H137.949V32ZM157.265 32.488L156.788 33.3673L156.796 33.3713L157.265 32.488ZM154.865 30.152L153.985 30.6283L153.991 30.6393L153.997 30.6501L154.865 30.152ZM154.865 18.248L153.997 17.7499L153.993 17.7569L153.989 17.7639L154.865 18.248ZM157.265 15.912L156.796 15.0286L156.788 15.0327L157.265 15.912ZM164.529 15.912L164.052 16.7913L164.06 16.7953L164.529 15.912ZM166.929 18.248L166.053 18.7321L166.057 18.7391L166.061 18.7461L166.929 18.248ZM167.793 24.904V25.904H168.793V24.904H167.793ZM156.849 24.904V23.904H155.849V24.904H156.849ZM157.905 29.8L157.177 30.486L157.182 30.4913L157.187 30.4965L157.905 29.8ZM163.601 30.312L164.091 31.1836L164.101 31.1778L164.111 31.1719L163.601 30.312ZM164.849 28.52V27.52H164.02L163.866 28.3341L164.849 28.52ZM167.729 28.52L168.72 28.6493L168.867 27.52H167.729V28.52ZM165.553 32.04L166.12 32.8632L166.123 32.8612L165.553 32.04ZM164.977 22.984H163.977V25.6454L165.729 23.6425L164.977 22.984ZM163.921 18.6L163.182 19.2748L163.188 19.2804L163.193 19.286L163.921 18.6ZM157.905 18.6L158.632 19.286L158.632 19.286L157.905 18.6ZM156.849 22.728H155.849V23.728H156.849V22.728ZM165.201 22.728L165.953 23.3865L167.404 21.728H165.201V22.728ZM160.913 32.32C159.661 32.32 158.611 32.0705 157.733 31.6047L156.796 33.3713C158.008 34.0148 159.391 34.32 160.913 34.32V32.32ZM157.741 31.6087C156.879 31.1417 156.215 30.4945 155.732 29.6539L153.997 30.6501C154.666 31.8148 155.602 32.7249 156.788 33.3673L157.741 31.6087ZM155.744 29.6757C155.28 28.8191 155.033 27.8035 155.033 26.6H153.033C153.033 28.0845 153.34 29.4369 153.985 30.6283L155.744 29.6757ZM155.033 26.6V21.8H153.033V26.6H155.033ZM155.033 21.8C155.033 20.5716 155.281 19.5606 155.74 18.7321L153.989 17.7639C153.338 18.9408 153.033 20.2978 153.033 21.8H155.033ZM155.732 18.7461C156.215 17.9055 156.879 17.2583 157.741 16.7913L156.788 15.0327C155.602 15.6751 154.666 16.5852 153.997 17.7499L155.732 18.7461ZM157.733 16.7953C158.611 16.3295 159.661 16.08 160.913 16.08V14.08C159.391 14.08 158.008 14.3852 156.796 15.0286L157.733 16.7953ZM160.913 16.08C162.164 16.08 163.2 16.3297 164.052 16.7913L165.005 15.0327C163.809 14.385 162.434 14.08 160.913 14.08V16.08ZM164.06 16.7953C164.94 17.2623 165.596 17.9048 166.053 18.7321L167.804 17.7639C167.152 16.5858 166.208 15.6711 164.997 15.0286L164.06 16.7953ZM166.061 18.7461C166.536 19.5719 166.793 20.5777 166.793 21.8H168.793C168.793 20.2916 168.473 18.9295 167.796 17.7499L166.061 18.7461ZM166.793 21.8V24.904H168.793V21.8H166.793ZM167.793 23.904H156.849V25.904H167.793V23.904ZM155.849 24.904V26.6H157.849V24.904H155.849ZM155.849 26.6C155.849 28.1504 156.244 29.4966 157.177 30.486L158.632 29.114C158.157 28.6101 157.849 27.8229 157.849 26.6H155.849ZM157.187 30.4965C158.129 31.4675 159.422 31.888 160.913 31.888V29.888C159.8 29.888 159.088 29.5832 158.622 29.1035L157.187 30.4965ZM160.913 31.888C162.126 31.888 163.209 31.6796 164.091 31.1836L163.11 29.4404C162.627 29.7124 161.918 29.888 160.913 29.888V31.888ZM164.111 31.1719C165.044 30.618 165.629 29.7734 165.831 28.7059L163.866 28.3341C163.769 28.8453 163.523 29.1953 163.09 29.4521L164.111 31.1719ZM164.849 29.52H167.729V27.52H164.849V29.52ZM166.737 28.3907C166.583 29.5728 166.017 30.4991 164.982 31.2188L166.123 32.8612C167.605 31.8315 168.49 30.4112 168.72 28.6493L166.737 28.3907ZM164.985 31.2168C163.95 31.9304 162.614 32.32 160.913 32.32V34.32C162.923 34.32 164.68 33.8562 166.12 32.8632L164.985 31.2168ZM165.977 22.984V21.8H163.977V22.984H165.977ZM165.977 21.8C165.977 20.2496 165.581 18.9034 164.648 17.914L163.193 19.286C163.668 19.7899 163.977 20.5771 163.977 21.8H165.977ZM164.659 17.9252C163.733 16.9125 162.425 16.48 160.913 16.48V18.48C162.045 18.48 162.743 18.7941 163.182 19.2748L164.659 17.9252ZM160.913 16.48C159.414 16.48 158.118 16.9163 157.177 17.914L158.632 19.286C159.099 18.7904 159.808 18.48 160.913 18.48V16.48ZM157.177 17.914C156.244 18.9034 155.849 20.2496 155.849 21.8H157.849C157.849 20.5771 158.157 19.7899 158.632 19.286L157.177 17.914ZM155.849 21.8V22.728H157.849V21.8H155.849ZM156.849 23.728H165.201V21.728H156.849V23.728ZM164.448 22.0695L164.224 22.3255L165.729 23.6425L165.953 23.3865L164.448 22.0695ZM174.82 31.56L174.08 32.2327L174.087 32.2399L174.82 31.56ZM174.82 16.84L175.56 17.5127L175.56 17.5127L174.82 16.84ZM182.564 16.264L181.894 17.0064L181.894 17.0064L182.564 16.264ZM183.876 19.432L183.117 20.0828L184.876 22.1353V19.432H183.876ZM183.3 18.76V17.76H181.126L182.541 19.4108L183.3 18.76ZM183.94 18.76V19.76H184.956L184.94 18.744L183.94 18.76ZM183.876 14.76H182.876V14.768L182.876 14.776L183.876 14.76ZM183.876 9.64V8.64H182.876V9.64H183.876ZM186.756 9.64H187.756V8.64H186.756V9.64ZM186.756 33V34H187.756V33H186.756ZM183.876 33H182.876V34H183.876V33ZM183.876 29.64H184.876V28.64H183.876V29.64ZM183.3 29.64L182.541 28.9892L181.126 30.64H183.3V29.64ZM183.876 28.968H184.876V26.2647L183.117 28.3172L183.876 28.968ZM182.564 32.168L183.224 32.9195L183.234 32.9104L182.564 32.168ZM182.852 29.704L182.114 29.0292L182.852 29.704ZM177.156 18.664L177.874 19.3605L177.874 19.3605L177.156 18.664ZM177.156 29.736L176.438 30.4325L176.438 30.4325L177.156 29.736ZM179.076 32.32C177.576 32.32 176.433 31.829 175.553 30.8801L174.087 32.2399C175.383 33.6376 177.077 34.32 179.076 34.32V32.32ZM175.56 30.8873C174.701 29.943 174.22 28.6168 174.22 26.792H172.22C172.22 28.9778 172.805 30.8303 174.08 32.2327L175.56 30.8873ZM174.22 26.792V21.64H172.22V26.792H174.22ZM174.22 21.64C174.22 19.7906 174.703 18.4551 175.56 17.5127L174.08 16.1673C172.803 17.5716 172.22 19.4361 172.22 21.64H174.22ZM175.56 17.5127C176.414 16.5734 177.551 16.08 179.076 16.08V14.08C177.06 14.08 175.359 14.76 174.08 16.1673L175.56 17.5127ZM179.076 16.08C180.339 16.08 181.243 16.419 181.894 17.0064L183.234 15.5216C182.136 14.5303 180.714 14.08 179.076 14.08V16.08ZM181.894 17.0064C182.532 17.5817 182.876 18.3538 182.876 19.432H184.876C184.876 17.8649 184.346 16.5249 183.234 15.5216L181.894 17.0064ZM184.635 18.7812L184.059 18.1092L182.541 19.4108L183.117 20.0828L184.635 18.7812ZM183.3 19.76H183.94V17.76H183.3V19.76ZM184.94 18.744L184.876 14.744L182.876 14.776L182.94 18.776L184.94 18.744ZM184.876 14.76V9.64H182.876V14.76H184.876ZM183.876 10.64H186.756V8.64H183.876V10.64ZM185.756 9.64V33H187.756V9.64H185.756ZM186.756 32H183.876V34H186.756V32ZM184.876 33V29.64H182.876V33H184.876ZM183.876 28.64H183.3V30.64H183.876V28.64ZM184.059 30.2908L184.635 29.6188L183.117 28.3172L182.541 28.9892L184.059 30.2908ZM182.876 28.968C182.876 30.073 182.528 30.8535 181.894 31.4256L183.234 32.9104C184.349 31.9038 184.876 30.551 184.876 28.968H182.876ZM181.904 31.4166C181.254 31.9877 180.346 32.32 179.076 32.32V34.32C180.707 34.32 182.125 33.8843 183.224 32.9194L181.904 31.4166ZM180.036 31.824C181.456 31.824 182.683 31.3703 183.59 30.3788L182.114 29.0292C181.655 29.531 181.005 29.824 180.036 29.824V31.824ZM183.59 30.3788C184.488 29.3969 184.876 28.0936 184.876 26.6H182.876C182.876 27.7517 182.582 28.5178 182.114 29.0292L183.59 30.3788ZM184.876 26.6V21.8H182.876V26.6H184.876ZM184.876 21.8C184.876 20.3064 184.488 19.0031 183.59 18.0212L182.114 19.3708C182.582 19.8822 182.876 20.6483 182.876 21.8H184.876ZM183.59 18.0212C182.683 17.0297 181.456 16.576 180.036 16.576V18.576C181.005 18.576 181.655 18.869 182.114 19.3708L183.59 18.0212ZM180.036 16.576C178.609 16.576 177.368 17.0096 176.438 17.9675L177.874 19.3605C178.352 18.8678 179.031 18.576 180.036 18.576V16.576ZM176.438 17.9675C175.497 18.9372 175.1 20.268 175.1 21.8H177.1C177.1 20.6013 177.407 19.8415 177.874 19.3605L176.438 17.9675ZM175.1 21.8V26.6H177.1V21.8H175.1ZM175.1 26.6C175.1 28.132 175.497 29.4628 176.438 30.4325L177.874 29.0395C177.407 28.5585 177.1 27.7987 177.1 26.6H175.1ZM176.438 30.4325C177.368 31.3904 178.609 31.824 180.036 31.824V29.824C179.031 29.824 178.352 29.5322 177.874 29.0395L176.438 30.4325Z"
              fill="white" mask="url(#path-2-outside-1_6_331)"/>
    </g>
    <defs>
        <clipPath id="clip0_6_331">
            <rect width="208" height="51" fill="white"/>
        </clipPath>
    </defs>
</svg>
